# File created by Blade
# Date/Time:  Thu Jan 22 16:52:56 2015
# Frame Rate: 120.000 fps
#------------------------------------------------------
:FULLY-SPECIFIED
:DEGREES
2305
root 3.292720 3.575987 -3.103816 -60.734356 2.026927 0.697785
RightUpLeg -86.947726 -19.166080 5.346268
RightLeg 107.028191 -0.000000 -0.000000
RightFoot 5.784173 -20.642811 19.694138
RightToeBase -1.121845 -0.000000 0.000000
LeftUpLeg -77.401462 12.510525 -12.855788
LeftLeg 95.129053 -0.000000 -0.000000
LeftFoot 17.640411 19.555077 -30.268245
LeftToeBase -2.409788 -0.000000 0.000000
Spine 69.980157 6.992215 6.549553
RightShoulder -11.033476 -37.167613 -9.725198
RightArm 20.636986 -43.694397 60.905372
RightForeArm -4.455944 -0.000000 53.077267
RightHand 33.367911 0.000000 -64.597831
RightHandThumb1 -24.326973 -0.000000 -32.862282
LeftShoulder 12.728577 17.902921 39.654689
LeftArm 1.820981 27.763768 -90.702094
LeftForeArm 32.149931 -0.000000 65.209493
LeftHand -16.947690 -0.000000 -1.270991
LeftHandThumb1 -26.253704 0.000000 33.147579
Head 40.134903 -9.852253 3.622796
2306
root 3.306922 3.586056 -3.117199 -60.623533 2.118133 0.637089
RightUpLeg -87.407028 -18.589955 5.832104
RightLeg 108.314576 -0.000000 -0.000000
RightFoot 5.753784 -20.645018 19.488954
RightToeBase -1.247859 -0.000000 0.000000
LeftUpLeg -78.023566 11.795154 -13.445377
LeftLeg 96.945207 -0.000000 -0.000000
LeftFoot 17.872110 19.155213 -29.683089
LeftToeBase -2.725301 -0.000000 0.000000
Spine 70.475032 6.942079 6.571768
RightShoulder -11.088128 -37.065731 -9.506246
RightArm 20.870399 -43.599850 60.640458
RightForeArm -4.386172 -0.000000 52.901545
RightHand 33.385935 -0.000000 -64.685909
RightHandThumb1 -24.326973 -0.000000 -32.862282
LeftShoulder 12.758522 17.749007 39.641222
LeftArm 1.770990 27.647248 -90.707005
LeftForeArm 32.096802 -0.000000 65.419886
LeftHand -17.043906 -0.000000 -1.111355
LeftHandThumb1 -26.253704 0.000000 33.147579
Head 40.772570 -9.879988 3.598453
2307
root 3.321559 3.593884 -3.129432 -60.483087 2.194106 0.600217
RightUpLeg -87.824020 -17.997657 6.264577
RightLeg 109.545357 -0.000000 -0.000000
RightFoot 5.591199 -20.606980 19.362481
RightToeBase -0.840863 -0.000000 0.000000
LeftUpLeg -78.613942 11.085616 -14.001077
LeftLeg 98.653677 -0.000000 -0.000000
LeftFoot 18.087446 18.724877 -29.055703
LeftToeBase -3.380581 -0.000000 0.000000
Spine 70.958308 6.936996 6.617762
RightShoulder -11.175689 -36.864674 -9.256217
RightArm 20.966996 -43.527544 60.427025
RightForeArm -4.123409 -0.000000 52.789669
RightHand 33.627440 -0.000000 -64.629061
RightHandThumb1 -24.326973 -0.000000 -32.862282
LeftShoulder 12.814994 17.656346 39.633510
LeftArm 1.786008 27.523090 -90.666182
LeftForeArm 32.040712 -0.000000 65.661020
LeftHand -17.117958 0.000000 -0.993705
LeftHandThumb1 -26.253704 0.000000 33.147579
Head 41.412615 -9.987690 3.452810
2308
root 3.330348 3.603324 -3.142197 -60.346476 2.237636 0.609261
RightUpLeg -88.153353 -17.319403 6.638907
RightLeg 110.686699 -0.000000 -0.000000
RightFoot 5.562270 -20.579758 19.034608
RightToeBase -0.553848 -0.000000 0.000000
LeftUpLeg -79.154616 10.475183 -14.520970
LeftLeg 100.280895 -0.000000 -0.000000
LeftFoot 18.269146 18.224275 -28.144614
LeftToeBase -3.285360 -0.000000 0.000000
Spine 71.450077 6.972634 6.622390
RightShoulder -11.169874 -36.693810 -9.035174
RightArm 21.075151 -43.427573 60.190842
RightForeArm -3.884113 -0.000000 52.736861
RightHand 33.736574 -0.000000 -64.626687
RightHandThumb1 -24.326973 -0.000000 -32.862282
LeftShoulder 12.870474 17.757864 39.594922
LeftArm 1.909271 27.311673 -90.520563
LeftForeArm 32.058160 -0.000000 65.996694
LeftHand -17.233698 -0.000000 -0.854199
LeftHandThumb1 -26.253704 0.000000 33.147579
Head 41.967863 -9.956996 3.469867
2309
root 3.337702 3.601990 -3.150239 -60.132443 2.240696 0.589673
RightUpLeg -88.539752 -16.667312 7.046126
RightLeg 111.767648 -0.000000 -0.000000
RightFoot 5.611192 -20.529367 18.972914
RightToeBase -0.671818 -0.000000 0.000000
LeftUpLeg -79.750769 9.833994 -14.906995
LeftLeg 101.847470 -0.000000 -0.000000
LeftFoot 18.555989 17.697568 -27.820896
LeftToeBase -4.238202 -0.000000 0.000000
Spine 71.847621 7.038224 6.720780
RightShoulder -11.269307 -36.564391 -8.675595
RightArm 21.159488 -43.310366 59.848703
RightForeArm -3.654109 -0.000000 52.786201
RightHand 33.767921 -0.000000 -64.635571
RightHandThumb1 -24.326973 -0.000000 -32.862282
LeftShoulder 12.959917 17.756340 39.600272
LeftArm 1.962964 27.111643 -90.464226
LeftForeArm 32.065360 -0.000000 66.300919
LeftHand -17.307917 -0.000000 -0.912199
LeftHandThumb1 -26.253704 0.000000 33.147579
Head 42.508335 -10.087978 3.347252
2310
root 3.339757 3.602944 -3.159474 -59.953500 2.209434 0.531113
RightUpLeg -88.830408 -16.053415 7.452022
RightLeg 112.758712 -0.000000 -0.000000
RightFoot 5.726894 -20.423955 19.059876
RightToeBase -0.756425 -0.000000 0.000000
LeftUpLeg -80.269736 9.220214 -15.281914
LeftLeg 103.324947 -0.000000 -0.000000
LeftFoot 18.383956 17.520156 -27.702360
LeftToeBase -4.166416 -0.000000 0.000000
Spine 72.294108 7.051074 6.853573
RightShoulder -11.298198 -36.453287 -8.387395
RightArm 21.249533 -43.179538 59.528751
RightForeArm -3.468187 -0.000000 52.874771
RightHand 33.607036 -0.000000 -64.685390
RightHandThumb1 -24.326973 -0.000000 -32.862282
LeftShoulder 13.034511 17.720519 39.547277
LeftArm 1.913347 26.835258 -90.427539
LeftForeArm 31.984578 0.000000 66.711379
LeftHand -17.401365 0.000000 -1.113383
LeftHandThumb1 -26.253704 0.000000 33.147579
Head 42.912170 -10.106077 3.322902
2311
root 3.349020 3.604330 -3.169968 -59.798734 2.225591 0.474457
RightUpLeg -89.047361 -15.495396 7.773291
RightLeg 113.679975 -0.000000 -0.000000
RightFoot 5.879557 -20.340797 18.988486
RightToeBase -0.722052 -0.000000 0.000000
LeftUpLeg -80.684046 8.604587 -15.665237
LeftLeg 104.645661 -0.000000 -0.000000
LeftFoot 18.441929 17.305507 -27.203789
LeftToeBase -4.828583 -0.000000 0.000000
Spine 72.758470 7.030229 6.910600
RightShoulder -11.267002 -36.472945 -8.079374
RightArm 21.445857 -42.969553 59.044455
RightForeArm -3.173035 0.000000 53.070201
RightHand 33.608493 -0.000000 -64.616504
RightHandThumb1 -24.326973 -0.000000 -32.862282
LeftShoulder 13.097682 17.735904 39.526486
LeftArm 1.913610 26.529669 -90.411725
LeftForeArm 32.047747 -0.000000 67.134910
LeftHand -17.591659 0.000000 -1.264889
LeftHandThumb1 -26.253704 0.000000 33.147579
Head 43.233136 -10.105843 3.338400
2312
root 3.355635 3.608361 -3.181717 -59.659139 2.255181 0.433128
RightUpLeg -89.189816 -14.965736 8.009529
RightLeg 114.527127 -0.000000 -0.000000
RightFoot 6.112320 -20.240412 19.105216
RightToeBase -0.864007 -0.000000 0.000000
LeftUpLeg -81.036904 8.019414 -16.038145
LeftLeg 105.890679 -0.000000 -0.000000
LeftFoot 18.267305 17.183437 -26.809544
LeftToeBase -4.997568 -0.000000 0.000000
Spine 73.265545 7.046328 6.996245
RightShoulder -11.217245 -36.373667 -7.803337
RightArm 21.405800 -42.780920 58.776707
RightForeArm -2.871222 0.000000 53.253547
RightHand 33.911723 -0.000000 -63.942954
RightHandThumb1 -24.326973 -0.000000 -32.862282
LeftShoulder 13.188934 17.660218 39.507234
LeftArm 1.858745 26.224079 -90.393450
LeftForeArm 31.987229 0.000000 67.609421
LeftHand -17.677939 0.000000 -1.411939
LeftHandThumb1 -26.253704 0.000000 33.147579
Head 43.488171 -10.202647 3.307759
2313
root 3.361878 3.609256 -3.189878 -59.506838 2.287320 0.377628
RightUpLeg -89.344925 -14.461941 8.309726
RightLeg 115.368024 -0.000000 -0.000000
RightFoot 6.090494 -20.379012 19.368648
RightToeBase -0.617119 -0.000000 0.000000
LeftUpLeg -81.365533 7.457118 -16.399154
LeftLeg 107.022781 -0.000000 -0.000000
LeftFoot 18.063022 17.194757 -26.307726
LeftToeBase -5.562591 -0.000000 0.000000
Spine 73.735288 7.036155 7.094591
RightShoulder -11.184764 -36.554923 -7.481501
RightArm 21.624302 -42.437906 58.302418
RightForeArm -2.514125 -0.000000 53.549992
RightHand 34.044616 -0.000000 -63.685698
RightHandThumb1 -24.326973 -0.000000 -32.862282
LeftShoulder 13.320094 17.720564 39.442590
LeftArm 1.876714 25.845631 -90.274070
LeftForeArm 31.991769 -0.000000 68.211703
LeftHand -17.743865 -0.000000 -1.752597
LeftHandThumb1 -26.253704 0.000000 33.147579
Head 43.714450 -10.239028 3.298504
2314
root 3.368960 3.608904 -3.197879 -59.378068 2.327592 0.309129
RightUpLeg -89.349027 -14.020195 8.337381
RightLeg 116.044957 -0.000000 -0.000000
RightFoot 6.635232 -19.865635 19.127612
RightToeBase -1.196941 -0.000000 0.000000
LeftUpLeg -81.624005 6.908898 -16.743838
LeftLeg 108.052511 -0.000000 -0.000000
LeftFoot 17.831196 17.301726 -25.767169
LeftToeBase -6.205149 -0.000000 0.000000
Spine 74.213308 7.004621 7.179194
RightShoulder -11.080163 -36.736667 -7.266088
RightArm 21.844323 -42.135228 57.866773
RightForeArm -1.920422 -0.000000 53.862865
RightHand 34.160197 -0.000000 -63.558369
RightHandThumb1 -24.326973 -0.000000 -32.862282
LeftShoulder 13.474889 17.733166 39.433214
LeftArm 1.876310 25.549533 -90.163356
LeftForeArm 31.696456 -0.000000 68.820899
LeftHand -17.815681 -0.000000 -2.082222
LeftHandThumb1 -26.253704 0.000000 33.147579
Head 43.859233 -10.285807 3.363758
2315
root 3.370316 3.603913 -3.200895 -59.245725 2.344406 0.212088
RightUpLeg -89.345039 -13.605577 8.388517
RightLeg 116.661348 -0.000000 -0.000000
RightFoot 7.098189 -19.441170 18.990093
RightToeBase -1.809225 -0.000000 0.000000
LeftUpLeg -81.874674 6.361741 -17.009245
LeftLeg 109.006321 -0.000000 -0.000000
LeftFoot 17.484275 17.441112 -25.182373
LeftToeBase -6.496541 -0.000000 0.000000
Spine 74.646783 6.947289 7.251154
RightShoulder -10.902733 -36.927821 -7.184142
RightArm 22.019967 -41.834441 57.524530
RightForeArm -1.232301 -0.000000 54.230712
RightHand 34.264594 -0.000000 -63.217782
RightHandThumb1 -24.326973 -0.000000 -32.862282
LeftShoulder 13.583085 17.810012 39.448693
LeftArm 1.936327 25.409581 -90.044785
LeftForeArm 31.479155 -0.000000 69.443706
LeftHand -18.183192 0.000000 -1.887099
LeftHandThumb1 -26.253704 0.000000 33.147579
Head 44.018232 -10.321188 3.415788
